<svg xmlns="http://www.w3.org/2000/svg" width="1080" height="1620" viewBox="0 0 1080 1620" fill="none">
  <defs>
    <linearGradient id="bg" x1="80" y1="40" x2="980" y2="1540" gradientUnits="userSpaceOnUse">
      <stop offset="0" stop-color="#4C1D95"/>
      <stop offset="0.45" stop-color="#1E1B4B"/>
      <stop offset="1" stop-color="#0B1220"/>
    </linearGradient>
    <linearGradient id="glass" x1="170" y1="290" x2="910" y2="1320" gradientUnits="userSpaceOnUse">
      <stop offset="0" stop-color="white" stop-opacity="0.24"/>
      <stop offset="1" stop-color="white" stop-opacity="0.05"/>
    </linearGradient>
  </defs>

  <rect width="1080" height="1620" fill="url(#bg)"/>
  <circle cx="220" cy="180" r="210" fill="#7C3AED" fill-opacity="0.25"/>
  <circle cx="930" cy="320" r="240" fill="#2563EB" fill-opacity="0.22"/>
  <circle cx="180" cy="1420" r="280" fill="#10B981" fill-opacity="0.18"/>

  <rect x="150" y="260" width="780" height="1100" rx="52" fill="url(#glass)" stroke="white" stroke-opacity="0.22" stroke-width="3"/>

  <rect x="220" y="360" width="640" height="360" rx="24" fill="white" fill-opacity="0.08"/>
  <path d="M470 450L650 540L470 630V450Z" fill="white" fill-opacity="0.78"/>

  <rect x="220" y="790" width="300" height="28" rx="14" fill="white" fill-opacity="0.42"/>
  <rect x="220" y="842" width="540" height="22" rx="11" fill="white" fill-opacity="0.28"/>
  <rect x="220" y="886" width="480" height="22" rx="11" fill="white" fill-opacity="0.28"/>

  <rect x="220" y="1010" width="190" height="220" rx="22" fill="white" fill-opacity="0.09"/>
  <rect x="445" y="1010" width="190" height="220" rx="22" fill="white" fill-opacity="0.09"/>
  <rect x="670" y="1010" width="190" height="220" rx="22" fill="white" fill-opacity="0.09"/>
</svg>

